<svg width="79" height="76" viewBox="0 0 79 76" fill="none" xmlns="http://www.w3.org/2000/svg">
<g clip-path="url(#clip0_11_377)">
<path d="M38.566 38.3971C41.1123 38.1894 43.9243 38.6205 46.3048 39.5173C51.0042 41.2879 55.2369 44.7822 57.3109 49.4325C59.4357 54.1958 59.9261 59.6668 58.0029 64.588C56.2768 69.0054 53.4095 72.4431 49.2406 74.759C48.7072 75.0554 48.1792 75.4326 47.6144 75.6617C47.4328 75.7357 47.2739 75.791 47.0918 75.7084C47.1143 75.439 47.784 75.0975 48.0229 74.9386C49.4319 74.0007 50.6011 72.9519 51.7051 71.6748C54.8755 68.0443 56.4574 63.2969 56.0978 58.4933C55.8441 55.2328 54.5311 51.8569 52.4699 49.3047C51.7404 48.4016 50.8734 47.5917 49.9898 46.8396C46.7998 44.1237 42.3402 42.6897 38.1573 43.0404C34.0687 43.3809 30.2824 45.3283 27.6309 48.4546C25.0453 51.5197 23.6917 55.4382 24.0409 59.4444C24.3472 63.1566 26.1123 66.5971 28.9508 69.014C31.7119 71.3188 35.4103 72.5709 39.0028 72.2311C42.3691 71.9041 45.4638 70.245 47.5965 67.624C49.6754 65.1249 50.6417 61.8866 50.2718 58.6588C49.9168 55.4369 48.3894 52.9212 45.8697 50.9277C43.7845 49.2777 40.9297 48.5423 38.3022 48.8482C35.6509 49.157 33.37 50.501 31.7239 52.5983C30.2375 54.4927 29.5864 57.0519 29.8901 59.4347C30.1746 61.5609 31.2884 63.4892 32.9891 64.7999C34.5849 66.0163 36.4972 66.6596 38.5083 66.3803C40.5955 66.0905 42.1022 65.297 43.3651 63.6261C43.772 63.0201 44.0806 62.3539 44.2793 61.652C44.6855 60.2078 44.6334 58.6221 43.8844 57.296C43.1906 56.0679 42.0202 55.1048 40.6561 54.7273C39.2621 54.3414 37.6406 54.4684 36.3764 55.1936C35.1106 55.9195 34.2217 57.2384 33.8551 58.6336C33.5514 59.791 33.6393 61.2342 34.2648 62.2784C34.3954 62.4965 34.555 62.7263 34.6577 62.9579C34.7206 63.1002 34.7131 63.1609 34.6592 63.3025L34.5895 63.319C34.4781 63.2902 34.3977 63.2456 34.3072 63.1765C33.0349 62.2006 32.1477 60.6458 31.9283 59.0667C31.6639 57.1634 32.3171 55.2665 33.4668 53.7594C34.6983 52.1456 36.5488 51.2167 38.5413 50.9565C40.9989 50.6354 43.2302 51.4983 45.1575 52.9927C46.8913 54.3368 48.0208 56.7624 48.2898 58.9024C48.628 61.5895 47.5672 64.3133 45.9359 66.4124C44.2929 68.5261 41.5941 69.8351 38.9678 70.1412C36.0371 70.4827 32.9649 69.5331 30.6671 67.714C28.057 65.648 26.5322 62.8176 26.1608 59.5179C25.7756 56.0955 26.9113 52.6529 29.0525 49.9814C31.1982 47.3048 34.5499 45.4959 37.9596 45.1324C41.9808 44.7039 45.7729 46.0466 48.8699 48.5793C51.8776 51.0389 53.6549 54.7546 54.0049 58.5823C54.3666 62.7276 53.061 66.846 50.3768 70.0284C47.4987 73.4776 43.583 75.4969 39.1117 75.8976C34.684 76.2945 30.1468 74.7368 26.7558 71.9052C23.0664 68.8243 20.7983 64.5729 20.3778 59.7773C19.9162 54.512 21.3993 49.3024 24.8425 45.235C28.3709 41.066 33.1756 38.85 38.566 38.3971Z" fill="#2C2B6C"/>
<path d="M24.9309 5.23127C25.804 4.94968 26.6275 5.07415 27.4314 5.49016C30.8554 7.26257 32.6484 12.452 33.7292 15.9438C34.6141 18.8033 34.9921 21.6029 35.1617 24.5863C35.2001 25.2602 35.348 26.3817 35.0279 26.9803C34.9592 27.1088 34.8417 27.2091 34.7341 27.3047C34.9219 27.3935 35.1109 27.481 35.3045 27.5567C38.4869 28.8007 41.6273 28.5459 44.7241 27.2343L44.71 27.1132C44.6012 27.1104 44.4165 27.1379 44.3343 27.0632C43.9381 26.7043 44.0781 25.3352 44.0926 24.8176C44.2421 19.5205 46.4864 10.1858 50.4297 6.49994C51.8237 5.19709 52.3499 5.10501 54.1728 5.16521C55.1593 5.56871 55.7596 6.24666 56.1698 7.21003C56.5663 8.141 56.7127 9.14262 56.8059 10.143C57.1937 14.3017 56.1527 18.7122 54.5725 22.545C53.4698 25.2196 52.1213 27.5134 50.3804 29.8171C49.5944 30.6695 48.8677 31.5472 47.9792 32.3024C47.2361 32.9342 46.3847 33.4461 45.6565 34.0845C44.6107 34.7872 43.2177 35.3177 41.9969 35.6189C38.9625 36.367 36.1858 35.544 33.5736 33.9766C33.1613 33.515 32.4732 33.1767 31.9929 32.763C31.0222 31.9262 30.118 30.9776 29.253 30.0331C28.9105 29.749 28.6366 29.2654 28.3809 28.8981C26.9637 26.8982 25.7544 24.759 24.772 22.5139C23.164 18.7957 22.2446 14.5711 22.5095 10.5161C22.5823 9.39998 22.7169 8.28689 23.1417 7.24242C23.4955 6.37292 24.0399 5.60417 24.9309 5.23127ZM31.0235 24.8347C31.022 24.7623 31.0225 24.6896 31.0197 24.6174C30.9796 23.5903 31.2654 22.4734 31.3566 21.4373C31.5257 19.3101 31.4708 17.1709 31.1926 15.0552C30.8593 12.4673 30.0342 8.89955 27.8212 7.26155C27.0728 6.70756 26.3757 6.69531 25.4893 6.83381C24.7161 7.23579 24.185 7.64159 23.9053 8.51058C22.9864 11.3652 24.1554 14.9473 25.4895 17.4938C26.4564 19.3392 27.6664 21.2629 29.0405 22.8261C29.6622 23.5337 30.3867 24.1435 31.0235 24.8347ZM47.9912 25.1245C48.3767 24.7998 48.7295 24.4004 49.0815 24.0389C51.5315 21.5223 53.5806 18.4768 54.8295 15.1863C55.5826 13.2022 56.1949 10.2088 55.2398 8.18921C54.8604 7.38704 54.311 7.07026 53.5081 6.78918C52.9336 6.63181 52.2447 6.83662 51.7376 7.1205C50.173 7.99638 49.1814 10.2616 48.7249 11.9192C47.9044 14.8993 47.7102 18.3276 47.9547 21.3996C48.0326 22.379 48.2079 23.3462 48.3123 24.3226C48.1961 24.5656 48.0771 24.8069 47.9552 25.0469L47.9912 25.1245Z" fill="#E4742A"/>
<path d="M24.9309 5.23127C25.804 4.94968 26.6276 5.07415 27.4315 5.49016C30.8555 7.26257 32.6484 12.452 33.7292 15.9438C34.6141 18.8033 34.9921 21.6029 35.1618 24.5863C35.2001 25.2602 35.348 26.3817 35.0279 26.9803C34.9592 27.1088 34.8417 27.2091 34.7341 27.3047C34.7058 27.3001 34.6767 27.2989 34.6488 27.2912C33.8426 27.0703 31.503 25.5282 31.0235 24.8347C31.022 24.7623 31.0225 24.6896 31.0197 24.6174C30.9796 23.5903 31.2654 22.4734 31.3566 21.4373C31.5257 19.3101 31.4708 17.1709 31.1926 15.0552C30.8593 12.4673 30.0342 8.89955 27.8213 7.26155C27.0728 6.70756 26.3757 6.69531 25.4893 6.83381C25.2939 6.30227 25.0985 5.77251 24.9309 5.23127Z" fill="#2C2B6C"/>
<path d="M44.7241 27.2343L44.71 27.1132C44.6012 27.1104 44.4165 27.1379 44.3343 27.0632C43.9381 26.7043 44.0781 25.3351 44.0926 24.8176C44.2421 19.5205 46.4864 10.1858 50.4297 6.49992C51.8237 5.19707 52.3499 5.10499 54.1728 5.16518C53.9848 5.71968 53.7628 6.26194 53.5081 6.78916C52.9336 6.63178 52.2447 6.8366 51.7376 7.12048C50.173 7.99636 49.1814 10.2615 48.7249 11.9192C47.9044 14.8993 47.7103 18.3276 47.9547 21.3995C48.0326 22.379 48.2079 23.3462 48.3123 24.3225C48.1961 24.5656 48.0771 24.8069 47.9552 25.0469L47.9912 25.1244C47.5343 25.7213 45.4593 27.1009 44.7241 27.2343Z" fill="#2C2B6C"/>
<path d="M33.5735 33.9766C33.5541 34.3388 33.4668 34.6283 33.3207 34.9565C32.3076 37.2317 30.2241 39.3191 27.8876 40.2133C23.5782 41.8626 18.62 40.7354 14.5492 38.9189C9.7673 36.7851 4.55953 32.9227 1.83776 28.3798C1.53848 27.8804 1.1008 27.2876 0.912228 26.741C0.866605 26.6089 0.851789 26.5926 0.917566 26.4651C1.02048 26.5071 2.98573 28.3829 3.39265 28.7025C7.40289 31.8555 12.4145 34.4518 17.5732 34.9037C20.8526 35.1912 24.2296 34.5875 26.7396 32.3172C27.3708 31.7461 28.0498 30.7447 28.5806 30.3259C28.9633 30.0242 28.9748 30.2405 29.3393 30.2869L29.2529 30.0331C30.1179 30.9776 31.0222 31.9262 31.9929 32.763C32.4731 33.1767 33.1613 33.5149 33.5735 33.9766Z" fill="#2C2B6C"/>
<path d="M50.3803 29.8171C50.3147 29.9247 50.235 30.0298 50.2036 30.1525C50.3377 30.1808 50.471 30.2015 50.6069 30.2201C53.1435 33.1206 55.0626 34.6668 59.0514 34.9318C65.5216 35.3618 72.2322 31.9387 76.9707 27.7664C77.2591 27.5123 78.1682 26.4551 78.4165 26.3985C78.5184 26.8206 77.9769 27.5529 77.7549 27.9151C77.0833 29.0116 76.3757 30.0538 75.5323 31.0263C71.9491 35.1578 65.9556 39.099 60.5989 40.3865C57.2454 41.1923 53.1989 41.4733 50.1269 39.6089C48.6055 38.6853 47.1096 37.1258 46.2761 35.5521C46.0326 35.0928 45.9151 34.5158 45.6564 34.0845C46.3846 33.4461 47.236 32.9342 47.9791 32.3024C48.8676 31.5472 49.5943 30.6695 50.3803 29.8171Z" fill="#2C2B6C"/>
<path d="M11.2093 10.8002C14.0514 10.8061 16.3532 13.1068 16.356 15.9446C16.3591 18.7826 14.0619 21.0879 11.2195 21.0991C8.36516 21.1106 6.04444 18.8048 6.04163 15.9548C6.03882 13.1047 8.35494 10.7946 11.2093 10.8002Z" fill="#2C2B6C"/>
<path d="M66.0301 10.8054C68.8663 10.6618 71.2846 12.8359 71.4381 15.6673C71.5916 18.4988 69.4226 20.9208 66.5874 21.0838C63.7385 21.2476 61.2984 19.0688 61.1442 16.2239C60.9899 13.3787 63.18 10.9497 66.0301 10.8054Z" fill="#2C2B6C"/>
<path d="M39.1144 0.326705C41.9274 0.0558307 44.4305 2.10575 44.7148 4.91295C44.9994 7.72015 42.9579 10.2292 40.1477 10.5261C37.3192 10.825 34.7864 8.77049 34.5001 5.94467C34.214 3.11911 36.2833 0.59962 39.1144 0.326705Z" fill="#E4742A"/>
</g>
<defs>
<clipPath id="clip0_11_377">
<rect width="79" height="76" fill="white"/>
</clipPath>
</defs>
</svg>
