<svg width="86" height="84" viewBox="0 0 86 84" fill="none" xmlns="http://www.w3.org/2000/svg">
<path d="M42.1565 42.4466C44.2773 42.2758 46.6193 42.6303 48.602 43.3678C52.5161 44.8239 56.0414 47.6976 57.7688 51.5218C59.5385 55.439 59.947 59.9382 58.3452 63.9853C56.9076 67.618 54.5194 70.4451 51.0472 72.3497C50.603 72.5934 50.1632 72.9036 49.6928 73.092C49.5415 73.1528 49.4092 73.1983 49.2575 73.1304C49.2762 72.9089 49.8341 72.628 50.033 72.4973C51.2065 71.7261 52.1803 70.8636 53.0999 69.8133C55.7404 66.8277 57.058 62.9235 56.7584 58.9732C56.5472 56.2919 55.4536 53.5155 53.7369 51.4167C53.1292 50.674 52.4071 50.008 51.6712 49.3894C49.0143 47.156 45.3 45.9767 41.8161 46.2651C38.4107 46.5452 35.2573 48.1466 33.0489 50.7176C30.8954 53.2382 29.768 56.4607 30.0588 59.7553C30.3139 62.8081 31.784 65.6375 34.1482 67.6251C36.4479 69.5205 39.5281 70.5502 42.5203 70.2708C45.3241 70.0019 47.9016 68.6374 49.6779 66.482C51.4093 64.4268 52.2142 61.7637 51.9061 59.1093C51.6104 56.4597 50.3383 54.3909 48.2397 52.7514C46.5029 51.3945 44.1252 50.7898 41.9368 51.0413C39.7286 51.2953 37.8289 52.4005 36.4579 54.1253C35.2198 55.6832 34.6775 57.7878 34.9305 59.7474C35.1675 61.4959 36.0951 63.0816 37.5116 64.1596C38.8407 65.1599 40.4334 65.6889 42.1085 65.4592C43.8469 65.2209 45.1017 64.5684 46.1536 63.1943C46.4925 62.6959 46.7495 62.148 46.915 61.5708C47.2533 60.3831 47.2099 59.0791 46.5861 57.9886C46.0083 56.9786 45.0334 56.1866 43.8973 55.8761C42.7363 55.5588 41.3857 55.6632 40.3328 56.2596C39.2786 56.8565 38.5382 57.9412 38.2329 59.0885C37.9799 60.0404 38.0531 61.2272 38.5741 62.0859C38.6829 62.2653 38.8158 62.4543 38.9014 62.6447C38.9537 62.7618 38.9475 62.8117 38.9026 62.9281L38.8446 62.9417C38.7518 62.918 38.6848 62.8813 38.6095 62.8245C37.5497 62.022 36.8108 60.7433 36.6281 59.4447C36.4079 57.8795 36.9519 56.3195 37.9095 55.0801C38.9352 53.753 40.4764 52.9891 42.1359 52.7751C44.1828 52.511 46.0413 53.2206 47.6465 54.4496C49.0905 55.555 50.0313 57.5498 50.2553 59.3096C50.537 61.5194 49.6534 63.7594 48.2948 65.4856C46.9263 67.2239 44.6785 68.3004 42.4912 68.5521C40.0502 68.8329 37.4914 68.052 35.5777 66.556C33.4037 64.857 32.1338 62.5294 31.8245 59.8157C31.5036 57.0013 32.4495 54.1702 34.2329 51.9732C36.02 49.772 38.8116 48.2845 41.6515 47.9856C45.0007 47.6332 48.159 48.7373 50.7385 50.8202C53.2435 52.8429 54.7238 55.8986 55.0153 59.0464C55.3166 62.4553 54.2292 65.8422 51.9935 68.4593C49.5964 71.2959 46.3351 72.9565 42.611 73.286C38.9233 73.6124 35.1443 72.3314 32.32 70.0027C29.2471 67.4691 27.3581 63.9729 27.0079 60.0291C26.6234 55.6991 27.8587 51.4148 30.7264 48.0699C33.6652 44.6414 37.667 42.8191 42.1565 42.4466Z" fill="#2D2A6C"/>
<path d="M30.7999 15.1735C31.5271 14.9419 32.2131 15.0443 32.8826 15.3864C35.7344 16.844 37.2277 21.1117 38.1279 23.9832C38.8649 26.3348 39.1798 28.6371 39.321 31.0906C39.3529 31.6447 39.4761 32.567 39.2095 33.0593C39.1523 33.1651 39.0544 33.2475 38.9649 33.3261C39.1213 33.3991 39.2787 33.4711 39.44 33.5334C42.0905 34.5564 44.7061 34.3468 47.2853 33.2683L47.2736 33.1686C47.183 33.1663 47.0292 33.189 46.9607 33.1275C46.6307 32.8324 46.7473 31.7064 46.7594 31.2808C46.8839 26.9246 48.7532 19.248 52.0375 16.2168C53.1985 15.1454 53.6368 15.0697 55.155 15.1192C55.9766 15.451 56.4766 16.0085 56.8183 16.8008C57.1485 17.5664 57.2704 18.3901 57.3481 19.2128C57.671 22.6328 56.8041 26.2599 55.4879 29.4119C54.5695 31.6114 53.4463 33.4977 51.9964 35.3922C51.3418 36.0932 50.7365 36.815 49.9965 37.4361C49.3776 37.9557 48.6685 38.3766 48.0619 38.9016C47.1909 39.4795 46.0307 39.9158 45.014 40.1635C42.4866 40.7787 40.174 40.1019 37.9983 38.8129C37.6549 38.4333 37.0818 38.1551 36.6818 37.8149C35.8733 37.1267 35.1202 36.3466 34.3998 35.5699C34.1145 35.3362 33.8864 34.9385 33.6734 34.6365C32.493 32.9918 31.4859 31.2326 30.6676 29.3863C29.3283 26.3285 28.5626 22.8543 28.7832 19.5196C28.8439 18.6018 28.956 17.6864 29.3098 16.8274C29.6045 16.1124 30.0578 15.4802 30.7999 15.1735ZM35.8744 31.2949C35.8731 31.2353 35.8735 31.1755 35.8712 31.1162C35.8378 30.2715 36.0759 29.353 36.1518 28.5009C36.2927 26.7516 36.2469 24.9924 36.0152 23.2524C35.7376 21.1243 35.0504 18.1902 33.2073 16.8432C32.5839 16.3876 32.0033 16.3775 31.265 16.4914C30.621 16.822 30.1787 17.1557 29.9457 17.8703C29.1804 20.2179 30.154 23.1637 31.2652 25.2579C32.0705 26.7755 33.0783 28.3575 34.2228 29.6431C34.7406 30.2249 35.344 30.7264 35.8744 31.2949ZM50.0065 31.5332C50.3275 31.2661 50.6214 30.9377 50.9145 30.6404C52.9551 28.5708 54.6618 26.0663 55.702 23.3603C56.3292 21.7286 56.8392 19.2669 56.0437 17.606C55.7277 16.9464 55.2701 16.6858 54.6014 16.4547C54.1229 16.3253 53.5491 16.4937 53.1268 16.7272C51.8236 17.4475 50.9977 19.3103 50.6175 20.6735C49.9342 23.1243 49.7725 25.9436 49.9761 28.4699C50.041 29.2754 50.1869 30.0707 50.2739 30.8737C50.1771 31.0736 50.078 31.272 49.9765 31.4694L50.0065 31.5332Z" fill="#E4742A"/>
<path d="M30.8003 15.1735C31.5275 14.9419 32.2134 15.0443 32.883 15.3864C35.7347 16.844 37.2281 21.1117 38.1283 23.9832C38.8652 26.3348 39.1801 28.6371 39.3214 31.0906C39.3533 31.6447 39.4765 32.567 39.2099 33.0593C39.1527 33.1651 39.0548 33.2475 38.9652 33.3261C38.9416 33.3224 38.9174 33.3213 38.8942 33.315C38.2227 33.1334 36.2741 31.8652 35.8747 31.2949C35.8735 31.2353 35.8739 31.1755 35.8715 31.1162C35.8381 30.2715 36.0762 29.353 36.1522 28.5009C36.293 26.7516 36.2473 24.9924 36.0156 23.2524C35.7379 21.1243 35.0507 18.1902 33.2076 16.8432C32.5843 16.3876 32.0036 16.3775 31.2654 16.4914C31.1026 16.0543 30.9399 15.6186 30.8003 15.1735Z" fill="#2D2A6C"/>
<path d="M47.2857 33.2675L47.274 33.1679C47.1834 33.1656 47.0295 33.1883 46.961 33.1268C46.631 32.8317 46.7476 31.7057 46.7598 31.2801C46.8842 26.9239 48.7535 19.2473 52.0378 16.2161C53.1988 15.1447 53.6371 15.069 55.1553 15.1185C54.9987 15.5745 54.8139 16.0204 54.6017 16.454C54.1232 16.3246 53.5494 16.493 53.1271 16.7265C51.824 17.4468 50.9981 19.3096 50.6179 20.6728C49.9345 23.1236 49.7728 25.9429 49.9764 28.4692C50.0413 29.2746 50.1873 30.07 50.2743 30.873C50.1775 31.0729 50.0783 31.2713 49.9768 31.4687L50.0068 31.5325C49.6262 32.0233 47.898 33.1578 47.2857 33.2675Z" fill="#2D2A6C"/>
<path d="M37.9984 38.8121C37.9822 39.1099 37.9094 39.348 37.7877 39.6179C36.944 41.4889 35.2087 43.2056 33.2626 43.941C29.6734 45.2973 25.5438 44.3704 22.1534 42.8765C18.1706 41.1217 13.8331 37.9453 11.5662 34.2094C11.3169 33.7987 10.9524 33.3112 10.7953 32.8617C10.7573 32.7531 10.745 32.7396 10.7998 32.6348C10.8855 32.6694 12.5223 34.2119 12.8612 34.4747C16.2013 37.0677 20.3754 39.2028 24.672 39.5745C27.4033 39.8109 30.216 39.3144 32.3065 37.4474C32.8322 36.9777 33.3977 36.1542 33.8398 35.8098C34.1586 35.5617 34.1681 35.7396 34.4717 35.7777L34.3998 35.569C35.1202 36.3458 35.8734 37.1258 36.6818 37.814C37.0818 38.1543 37.655 38.4324 37.9984 38.8121Z" fill="#2D2A6C"/>
<path d="M51.9965 35.3914C51.9418 35.4799 51.8755 35.5664 51.8493 35.6673C51.961 35.6905 52.072 35.7075 52.1852 35.7228C54.2979 38.1082 55.8963 39.3797 59.2185 39.5976C64.6074 39.9513 70.1965 37.1362 74.1432 33.705C74.3834 33.4961 75.1406 32.6266 75.3474 32.5801C75.4322 32.9272 74.9812 33.5294 74.7963 33.8273C74.237 34.729 73.6476 35.5861 72.9451 36.3859C69.9608 39.7835 64.9689 43.0246 60.5074 44.0835C57.7143 44.7461 54.3441 44.9772 51.7855 43.4439C50.5183 42.6844 49.2724 41.402 48.5782 40.1078C48.3754 39.73 48.2775 39.2555 48.062 38.9008C48.6686 38.3758 49.3777 37.9548 49.9966 37.4353C50.7366 36.8142 51.3419 36.0924 51.9965 35.3914Z" fill="#2D2A6C"/>
<path d="M19.3719 19.752C21.7391 19.7568 23.6562 21.6488 23.6585 23.9825C23.6611 26.3165 21.7478 28.2122 19.3804 28.2215C17.0031 28.2309 15.0702 26.3347 15.0679 23.9909C15.0655 21.6471 16.9946 19.7473 19.3719 19.752Z" fill="#2D2A6C"/>
<path d="M65.0309 19.7575C67.3931 19.6394 69.4073 21.4273 69.5351 23.7558C69.663 26.0843 67.8565 28.0762 65.4951 28.2102C63.1222 28.3449 61.09 26.5531 60.9615 24.2135C60.833 21.8737 62.6571 19.8762 65.0309 19.7575Z" fill="#2D2A6C"/>
<path d="M42.6133 11.1389C44.9562 10.9161 47.041 12.6019 47.2778 14.9105C47.5148 17.2191 45.8144 19.2824 43.4739 19.5266C41.118 19.7724 39.0086 18.0828 38.7701 15.759C38.5318 13.4353 40.2553 11.3633 42.6133 11.1389Z" fill="#E4742A"/>
</svg>
