<svg xmlns="http://www.w3.org/2000/svg" width="228.568" height="228.568" fill="none" overflow="visible"><path d="M 97.945 7.217 C 106.713 -2.406 121.855 -2.406 130.623 7.217 C 136.439 13.6 145.439 16.012 153.668 13.392 C 166.072 9.442 179.186 17.013 181.967 29.731 C 183.812 38.167 190.401 44.756 198.837 46.601 C 211.555 49.382 219.126 62.496 215.176 74.9 C 212.556 83.129 214.968 92.129 221.351 97.945 C 230.974 106.713 230.974 121.855 221.351 130.623 C 214.968 136.439 212.556 145.439 215.176 153.668 C 219.126 166.072 211.555 179.186 198.837 181.967 C 190.401 183.812 183.812 190.401 181.967 198.837 C 179.186 211.555 166.072 219.126 153.668 215.176 C 145.439 212.556 136.439 214.968 130.623 221.351 C 121.855 230.974 106.713 230.974 97.945 221.351 C 92.129 214.968 83.129 212.556 74.9 215.176 C 62.496 219.126 49.382 211.555 46.601 198.837 C 44.756 190.401 38.167 183.812 29.731 181.967 C 17.013 179.186 9.442 166.072 13.392 153.668 C 16.012 145.439 13.6 136.439 7.217 130.623 C -2.406 121.855 -2.406 106.713 7.217 97.945 C 13.6 92.129 16.012 83.129 13.392 74.9 C 9.442 62.496 17.013 49.382 29.731 46.601 C 38.167 44.756 44.756 38.167 46.601 29.731 C 49.382 17.013 62.496 9.442 74.9 13.392 C 83.129 16.012 92.129 13.6 97.945 7.217 Z" fill="rgba(72,72,72,0.5)"></path></svg>